<svg xmlns="http://www.w3.org/2000/svg" viewBox="0 0 1024 1024">
  <defs>
    <!-- Background gradient: silver -->
    <linearGradient id="bg" x1="0" y1="0" x2="0" y2="1">
      <stop offset="0%" stop-color="#F2F3F5"/>
      <stop offset="100%" stop-color="#C9CDD4"/>
    </linearGradient>

    <!-- Mouse body gradient -->
    <linearGradient id="mouseBody" x1="0" y1="0" x2="0" y2="1">
      <stop offset="0%" stop-color="#FFFFFF"/>
      <stop offset="100%" stop-color="#E4E7EC"/>
    </linearGradient>

    <!-- Scroll wheel -->
    <linearGradient id="wheel" x1="0" y1="0" x2="0" y2="1">
      <stop offset="0%" stop-color="#3A9BFF"/>
      <stop offset="100%" stop-color="#0066E0"/>
    </linearGradient>

    <!-- Subtle edge border gradient -->
    <linearGradient id="border" x1="0" y1="0" x2="0" y2="1">
      <stop offset="0%" stop-color="#DADDE3"/>
      <stop offset="100%" stop-color="#A8ADB6"/>
    </linearGradient>

    <!-- Background border -->
    <linearGradient id="bgBorder" x1="0" y1="0" x2="0" y2="1">
      <stop offset="0%" stop-color="#D6D9DF"/>
      <stop offset="100%" stop-color="#A0A5AE"/>
    </linearGradient>

    <!-- Mouse shadow -->
    <filter id="mouseShadow" x="-10%" y="-5%" width="120%" height="125%">
      <feDropShadow dx="0" dy="5" stdDeviation="7" flood-color="#6B7280" flood-opacity="0.25"/>
    </filter>
  </defs>

  <!-- Background squircle with border -->
  <rect x="18" y="18" width="988" height="988" rx="222" ry="222" fill="url(#bgBorder)"/>
  <rect x="22" y="22" width="980" height="980" rx="218" ry="218" fill="url(#bg)"/>

  <!-- Subtle top highlight for depth -->
  <rect x="22" y="22" width="980" height="490" rx="218" ry="218" fill="white" opacity="0.45"/>

  <!-- Mouse body -->
  <g filter="mouseShadow" transform="translate(512, 505)">
    <!-- Mouse outline/border -->
    <rect x="-137" y="-212" width="274" height="418" rx="137" fill="url(#border)"/>

    <!-- Mouse body fill -->
    <rect x="-132" y="-207" width="264" height="408" rx="132" fill="url(#mouseBody)"/>

    <!-- Left/right button divider -->
    <line x1="0" y1="-207" x2="0" y2="-20" stroke="#C8CDD5" stroke-width="2"/>

    <!-- Scroll wheel -->
    <rect x="-13" y="-152" width="26" height="52" rx="13" fill="url(#wheel)"/>

    <!-- Scroll wheel inner highlight -->
    <rect x="-8" y="-144" width="16" height="36" rx="8" fill="white" opacity="0.25"/>

    <!-- Subtle body highlight (top-left reflection) -->
    <ellipse cx="-40" cy="-90" rx="50" ry="70" fill="white" opacity="0.18"/>
  </g>
</svg>
