<svg xmlns="http://www.w3.org/2000/svg" viewBox="0 0 1024 1024">
  <defs>
    <!-- Background gradient: darker silver-gray -->
    <linearGradient id="bg" x1="0" y1="0" x2="0" y2="1">
      <stop offset="0%" stop-color="#C5C9D0"/>
      <stop offset="100%" stop-color="#8E939D"/>
    </linearGradient>

    <!-- Mouse body gradient -->
    <linearGradient id="mouseBody" x1="0" y1="0" x2="0" y2="1">
      <stop offset="0%" stop-color="#FFFFFF"/>
      <stop offset="100%" stop-color="#E8EAEF"/>
    </linearGradient>

    <!-- Scroll wheel -->
    <linearGradient id="wheel" x1="0" y1="0" x2="0" y2="1">
      <stop offset="0%" stop-color="#3A9BFF"/>
      <stop offset="100%" stop-color="#0066E0"/>
    </linearGradient>

    <!-- Mouse border gradient (darker) -->
    <linearGradient id="border" x1="0" y1="0" x2="0" y2="1">
      <stop offset="0%" stop-color="#9EA3AD"/>
      <stop offset="100%" stop-color="#6B7280"/>
    </linearGradient>

    <!-- Background border -->
    <linearGradient id="bgBorder" x1="0" y1="0" x2="0" y2="1">
      <stop offset="0%" stop-color="#B0B5BD"/>
      <stop offset="100%" stop-color="#787E88"/>
    </linearGradient>

    <!-- Mouse shadow -->
    <filter id="mouseShadow" x="-15%" y="-10%" width="130%" height="130%">
      <feDropShadow dx="0" dy="6" stdDeviation="10" flood-color="#3D4250" flood-opacity="0.35"/>
    </filter>
  </defs>

  <!-- Background squircle with border -->
  <rect x="18" y="18" width="988" height="988" rx="222" ry="222" fill="url(#bgBorder)"/>
  <rect x="22" y="22" width="980" height="980" rx="218" ry="218" fill="url(#bg)"/>

  <!-- Subtle top highlight for depth -->
  <rect x="22" y="22" width="980" height="490" rx="218" ry="218" fill="white" opacity="0.3"/>

  <!-- Mouse body -->
  <g filter="mouseShadow" transform="translate(512, 510)">
    <!-- Mouse outline/border (thicker) -->
    <rect x="-175" y="-265" width="350" height="520" rx="175" fill="url(#border)"/>

    <!-- Mouse body fill -->
    <rect x="-163" y="-253" width="326" height="496" rx="163" fill="url(#mouseBody)"/>

    <!-- Left/right button divider -->
    <line x1="0" y1="-253" x2="0" y2="-25" stroke="#C0C5CE" stroke-width="2.5"/>

    <!-- Scroll wheel -->
    <rect x="-15" y="-190" width="30" height="60" rx="15" fill="url(#wheel)"/>

    <!-- Scroll wheel inner highlight -->
    <rect x="-9" y="-182" width="18" height="44" rx="9" fill="white" opacity="0.25"/>

    <!-- Subtle body highlight (top-left reflection) -->
    <ellipse cx="-50" cy="-110" rx="55" ry="80" fill="white" opacity="0.2"/>
  </g>
</svg>
